# xmcd CD database file generated by LOLA_Freedb v0.9beta0
# 
# Track frame offsets:
#      150
#      13875
#      26765
#      41917
#      59945
#      80065
#      96722
#      111225
#      125675
#      143632
# 
# Disc length: 2096 seconds
# 
# Revision: 0 
# Processed by: cddbd v1.5.2PL0 Copyright (c) Steve Scherf et al.
# Submitted via: LOLA_Freedb v0.9beta0
# 
DISCID=9e082e0a
DTITLE=Jeff Alan - Dumber Then A Rock
DYEAR=1997
DGENRE=
TTITLE0=Jeff Alan - Dumber Then A Rock
TTITLE1=Jeff Alan - Leavin' It All Behind
TTITLE2=Jeff Alan - Our Hearts Aren't In It
TTITLE3=Jeff Alan - Going To Town
TTITLE4=Jeff Alan - Heart Of The South
TTITLE5=Jeff Alan - This Site Of The Door
TTITLE6=Jeff Alan - First Love In The Last Row
TTITLE7=Jeff Alan - Redneck With The Blues
TTITLE8=Jeff Alan - Tears Don't Lie
TTITLE9=Jeff Alan - Wine Me Up
EXTD=
EXTT0=
EXTT1=
EXTT2=
EXTT3=
EXTT4=
EXTT5=
EXTT6=
EXTT7=
EXTT8=
EXTT9=
PLAYORDER=
